<?xml version="1.0" standalone="no"?>
<!DOCTYPE svg PUBLIC "-//W3C//DTD SVG 20010904//EN"
 "http://www.w3.org/TR/2001/REC-SVG-20010904/DTD/svg10.dtd">
<svg version="1.0" xmlns="http://www.w3.org/2000/svg"
 width="500.000000pt" height="500.000000pt" viewBox="0 0 500.000000 500.000000"
 preserveAspectRatio="xMidYMid meet">

<g transform="translate(0.000000,500.000000) scale(0.100000,-0.100000)"
fill="#000000" stroke="none">
<path d="M2 3818 c1 -651 4 -1151 8 -1113 6 68 7 67 9 -40 4 -132 4 -305 0
-360 -2 -32 -4 -28 -9 25 -4 36 -7 -474 -8 -1132 l-2 -1198 2500 0 2500 0 0
2500 0 2500 -2500 0 -2500 0 2 -1182z m2861 1132 c65 -12 132 -18 148 -15 16
4 29 3 29 -2 0 -5 28 -14 63 -21 82 -15 253 -84 430 -172 78 -38 145 -70 149
-70 17 0 219 -145 311 -222 54 -46 118 -99 143 -119 56 -44 185 -189 264 -294
165 -220 197 -265 230 -320 45 -74 97 -203 110 -272 5 -29 17 -69 25 -90 9
-21 21 -63 25 -93 5 -30 18 -84 29 -120 46 -155 92 -460 95 -627 1 -22 4 -44
8 -48 4 -4 3 -16 -2 -25 -5 -10 -12 -80 -15 -156 -2 -76 -9 -151 -14 -168 -6
-17 -14 -64 -20 -104 -10 -80 -25 -109 -46 -92 -9 8 -15 8 -20 0 -5 -8 -10 -8
-20 0 -9 8 -15 8 -20 0 -3 -6 -10 -8 -15 -5 -5 3 0 36 11 73 10 37 19 81 19
99 0 17 7 60 15 95 8 35 15 115 16 178 0 63 6 134 11 158 11 43 -6 187 -22
197 -4 2 -10 -84 -14 -192 -5 -145 -15 -241 -36 -367 -37 -215 -41 -238 -48
-231 -3 2 -11 0 -18 -6 -23 -19 -26 12 -9 92 42 197 47 245 48 454 0 205 -11
335 -46 530 -17 99 -56 209 -146 420 -48 113 -164 330 -200 376 -116 149 -169
208 -295 335 -78 77 -175 165 -216 195 -185 133 -279 193 -366 232 -72 31
-255 89 -262 82 -5 -5 25 -18 113 -47 136 -45 384 -183 446 -247 14 -15 43
-40 65 -56 178 -133 274 -230 457 -465 60 -77 136 -199 170 -275 54 -119 90
-216 83 -222 -3 -4 1 -14 9 -23 8 -9 24 -41 34 -71 11 -30 27 -74 37 -99 9
-25 18 -56 19 -70 2 -14 15 -104 29 -200 47 -310 45 -601 -5 -820 -23 -101
-43 -138 -65 -119 -8 7 -14 7 -19 -1 -5 -8 -10 -8 -20 0 -10 8 -15 8 -20 0 -5
-8 -10 -8 -20 0 -10 8 -15 8 -20 0 -5 -8 -10 -9 -18 -1 -7 7 -14 7 -24 0 -18
-15 -20 -4 -28 126 -9 159 -24 276 -54 430 -17 87 -29 139 -40 175 -5 19 -14
51 -19 70 -21 77 -85 256 -128 357 -59 138 -111 240 -223 437 -34 60 -117 180
-132 192 -16 12 -221 92 -319 123 -67 22 -93 30 -170 50 -25 7 -59 17 -76 22
-63 19 -64 17 -64 -74 0 -176 -40 -279 -149 -387 -109 -108 -241 -162 -249
-103 -2 16 20 47 87 118 125 133 150 186 163 345 5 67 8 128 6 137 -2 9 -27
-33 -57 -92 l-53 -108 -50 6 c-50 6 -50 6 -43 -20 8 -35 -11 -78 -41 -92 -38
-17 -53 -14 -86 19 -29 30 -30 30 -144 30 l-114 0 0 -37 c1 -192 122 -382 375
-587 l70 -57 6 108 c5 100 8 114 44 188 29 59 58 98 110 150 122 121 243 168
422 164 137 -2 192 -22 303 -106 146 -110 204 -223 217 -424 6 -94 -13 -200
-49 -271 -28 -58 -129 -169 -190 -210 -64 -44 -179 -86 -260 -95 -56 -6 -58
-6 -51 -32 12 -46 8 -184 -6 -231 -29 -88 -107 -183 -176 -212 -84 -35 -132
-42 -193 -28 -59 13 -124 39 -130 53 -2 4 -39 7 -83 7 l-79 0 0 -82 0 -81 203
6 c127 3 209 2 220 -5 27 -15 39 -55 25 -81 -23 -44 -37 -48 -146 -42 l-104 6
16 -23 c21 -30 20 -57 -4 -93 -11 -17 -20 -47 -20 -68 0 -112 138 -379 291
-560 76 -91 90 -147 34 -147 -72 0 -271 234 -374 439 -85 168 -110 335 -64
414 l22 37 -49 0 -49 0 -3 -537 c-3 -467 -5 -543 -19 -573 -34 -74 -73 -74
-103 0 -14 36 -16 105 -16 575 l0 535 -55 0 -56 0 23 -31 c33 -44 32 -174 -1
-278 -78 -238 -336 -581 -438 -581 -56 0 -38 56 52 165 112 135 206 295 251
429 29 84 30 130 5 186 -20 45 -18 63 7 93 15 17 12 17 -64 11 -72 -6 -82 -4
-106 16 -34 26 -37 65 -7 96 21 23 24 23 205 17 l184 -6 0 81 0 82 -215 0
c-202 0 -216 1 -235 20 -26 26 -26 74 1 99 20 18 32 19 236 14 l215 -6 -7 97
c-7 93 -6 98 16 122 33 35 80 33 112 -6 l25 -29 7 52 c15 105 80 207 169 263
l43 27 -29 48 c-20 31 -50 59 -88 83 -221 137 -457 377 -520 530 -13 31 -27
56 -31 56 -3 0 -9 -12 -12 -27 -9 -42 -60 -114 -134 -187 -59 -58 -94 -80
-203 -130 -29 -13 -66 -120 -81 -228 -4 -38 -15 -80 -23 -96 l-14 -28 56 -13
c181 -42 291 -237 247 -439 -9 -42 -20 -97 -25 -121 -7 -45 -38 -81 -67 -81
-9 0 -23 -8 -32 -18 -19 -20 -81 -48 -131 -58 l-35 -7 60 -28 c80 -39 115 -78
115 -129 0 -53 -27 -80 -79 -80 -37 0 -91 35 -91 58 0 12 -101 82 -110 77 -4
-3 -11 -17 -14 -31 -13 -51 -113 -167 -198 -230 -43 -32 -114 -62 -198 -84
-49 -13 -178 -12 -242 1 -138 30 -294 148 -355 271 -57 113 -65 155 -61 301
l3 132 43 81 c80 148 192 242 343 289 45 14 83 16 190 13 130 -4 136 -5 202
-39 l69 -35 61 61 c34 34 76 68 93 75 l31 14 -20 33 c-26 44 -19 93 28 209 19
49 35 92 35 96 0 4 -13 8 -30 8 -157 0 -354 126 -432 277 -53 102 -68 165 -68
292 0 61 -3 111 -7 111 -4 0 -25 -7 -48 -15 -34 -14 -50 -31 -106 -118 -144
-220 -260 -452 -347 -687 -11 -30 -27 -74 -36 -98 -9 -23 -20 -59 -25 -80 -6
-20 -15 -55 -21 -77 -58 -206 -88 -390 -96 -595 -6 -132 -16 -172 -37 -151 -7
7 -14 7 -23 0 -8 -7 -14 -7 -19 1 -5 8 -10 8 -20 0 -10 -8 -15 -8 -20 0 -5 8
-10 8 -20 0 -10 -8 -15 -8 -20 0 -5 8 -12 7 -23 -2 -10 -7 -14 -9 -10 -4 4 5
1 14 -6 21 -12 12 -40 132 -66 283 -7 36 -10 151 -9 263 1 112 -2 200 -7 201
-15 5 -27 -137 -27 -317 0 -173 14 -272 58 -394 17 -48 18 -58 8 -48 -3 4 -12
2 -19 -4 -8 -7 -14 -7 -19 1 -5 8 -10 8 -20 0 -10 -8 -15 -8 -20 0 -5 8 -10 8
-20 0 -10 -8 -15 -8 -20 0 -5 8 -10 8 -20 0 -9 -8 -15 -8 -20 0 -3 6 -10 8
-14 5 -11 -6 -39 62 -46 115 -3 25 -12 56 -19 69 -8 15 -10 37 -6 61 4 20 3
61 -2 91 -15 98 -19 262 -11 447 4 101 4 190 0 198 -5 8 -4 20 1 27 12 17 34
100 30 118 -1 8 2 28 9 44 6 17 19 65 29 108 9 42 23 82 30 88 8 6 14 19 14
28 0 19 20 64 117 259 36 72 70 132 75 132 4 0 8 6 8 13 0 23 156 251 226 331
88 101 246 255 349 341 69 58 133 103 287 201 40 25 218 116 346 175 51 24 92
49 92 57 0 9 6 12 16 8 10 -4 35 0 58 9 23 8 124 33 225 55 102 22 187 43 190
47 3 5 44 9 91 9 47 1 157 6 245 11 179 11 175 11 338 -17z m-1103 -90 c0 -5
-2 -10 -4 -10 -3 0 -8 5 -11 10 -3 6 -1 10 4 10 6 0 11 -4 11 -10z m-390 -164
c0 -2 -7 -7 -16 -10 -8 -3 -12 -2 -9 4 6 10 25 14 25 6z m-406 -227 c-10 -12
-32 -30 -49 -41 -19 -12 -13 -4 15 21 49 44 64 53 34 20z m3933 -1331 c-3 -8
-6 -5 -6 6 -1 11 2 17 5 13 3 -3 4 -12 1 -19z m21 -83 c0 -16 -2 -15 -8 5 -4
14 -8 34 -8 45 0 16 2 15 8 -5 4 -14 8 -34 8 -45z m9 -57 c-3 -7 -5 -2 -5 12
0 14 2 19 5 13 2 -7 2 -19 0 -25z m27 -133 c4 -20 3 -25 -3 -15 -5 8 -12 42
-15 75 -5 55 -5 56 4 15 5 -25 12 -58 14 -75z m-4909 45 c3 -5 1 -10 -4 -10
-6 0 -11 5 -11 10 0 6 2 10 4 10 3 0 8 -4 11 -10z m-18 -82 c-3 -8 -6 -5 -6 6
-1 11 2 17 5 13 3 -3 4 -12 1 -19z m4941 -58 c0 -9 -3 -7 -8 5 -5 11 -8 29 -8
40 0 16 2 15 8 -5 4 -14 8 -32 8 -40z m11 -227 c-1 -63 -4 -85 -8 -63 -6 35
-3 160 5 160 2 0 3 -44 3 -97z m-10 -157 c-9 -8 -10 -7 -5 7 3 10 7 24 7 30 1
7 3 4 6 -7 3 -10 -1 -23 -8 -30z m-2 -103 c-2 -16 -4 -5 -4 22 0 28 2 40 4 28
2 -13 2 -35 0 -50z m-4937 -85 c-7 -19 -9 -15 -9 22 0 37 2 41 9 23 6 -14 6
-32 0 -45z m3920 -115 c-162 -15 -275 -67 -381 -172 -128 -128 -172 -252 -151
-428 22 -191 129 -344 297 -427 75 -38 86 -40 189 -44 130 -5 195 7 289 55
199 100 316 323 280 532 -30 174 -64 242 -167 338 -71 66 -168 118 -246 133
-69 13 -80 25 -15 16 112 -15 204 -65 306 -166 97 -95 133 -188 143 -370 8
-157 -24 -251 -129 -369 -75 -85 -130 -123 -231 -162 -205 -78 -411 -34 -572
121 -124 121 -165 230 -160 428 3 125 4 128 43 207 68 137 214 261 345 293 74
19 83 20 140 19 30 0 39 -2 20 -4z m-70 -43 c-14 -4 -34 -8 -45 -8 -16 0 -15
2 5 8 14 4 34 8 45 8 16 0 15 -2 -5 -8z m265 -20 c3 -5 -4 -6 -15 -3 -11 3
-22 9 -25 13 -3 5 4 6 15 3 11 -3 22 -9 25 -13z m-355 -2 c-14 -7 -43 -20 -64
-30 -22 -10 -42 -18 -45 -18 -13 0 42 32 76 45 45 16 68 18 33 3z m118 2 c-25
-5 -56 -11 -67 -15 -12 -3 -21 -4 -21 -1 0 9 63 24 100 24 31 0 29 -1 -12 -8z
m-119 -25 c-14 -13 -120 -65 -114 -55 4 7 31 23 59 36 51 24 64 28 55 19z
m381 -10 c17 -9 30 -18 30 -21 0 -4 -59 23 -69 32 -10 9 13 3 39 -11z m45 -3
c-3 -3 -11 0 -18 7 -9 10 -8 11 6 5 10 -3 15 -9 12 -12z m70 -84 l50 -52 -50
43 c-27 24 -54 48 -59 53 -6 5 -6 8 0 8 5 0 32 -23 59 -52z m-693 -1 c-52 -53
-56 -74 -5 -26 36 33 36 33 16 4 -12 -16 -31 -39 -42 -49 -22 -20 -22 -20 -15
0 11 36 -34 -27 -66 -93 -23 -47 -32 -81 -37 -143 -3 -44 -10 -83 -16 -87 -15
-9 2 123 24 186 10 30 33 79 51 109 32 53 111 142 125 142 4 0 -12 -19 -35
-43z m713 23 c10 -11 16 -20 13 -20 -3 0 -13 9 -23 20 -10 11 -16 20 -13 20 3
0 13 -9 23 -20z m46 -97 c13 -16 12 -17 -3 -4 -17 13 -22 21 -14 21 2 0 10 -8
17 -17z m94 -143 c5 -27 4 -32 -5 -20 -9 12 -10 8 -6 -19 3 -18 6 -50 7 -70 1
-31 2 -33 8 -11 12 42 20 7 11 -50 -5 -39 -8 -46 -10 -25 l-3 30 -7 -35 c-6
-31 -8 -27 -9 25 -2 88 -17 166 -44 234 -14 34 -23 61 -20 61 2 0 17 -28 34
-62 28 -62 31 -38 3 31 -22 53 -15 51 11 -4 13 -27 26 -66 30 -85z m-917 95
c-6 -14 -13 -23 -15 -21 -5 5 15 46 22 46 3 0 -1 -11 -7 -25z m-54 -144 c-4
-17 -9 -30 -11 -27 -3 2 -2 19 2 36 9 41 17 33 9 -9z m-1286 -81 c2 -27 -14
-72 -64 -180 -133 -289 -189 -442 -205 -560 -13 -93 -31 -128 -75 -146 -72
-30 -134 30 -120 118 22 135 268 629 382 766 46 55 77 55 82 2z m1277 -32 c0
-29 3 -69 7 -88 6 -26 5 -31 -3 -17 -13 23 -25 157 -13 157 5 0 9 -24 9 -52z
m984 -110 c-21 -93 -102 -220 -171 -269 -21 -15 -28 -17 -19 -6 7 9 9 17 3 17
-5 0 -14 -6 -20 -13 -6 -7 -34 -24 -62 -37 -52 -24 -63 -38 -16 -20 15 5 25 6
21 1 -8 -14 -124 -49 -185 -55 -188 -21 -379 70 -485 230 -39 59 -72 130 -56
119 6 -3 11 -12 11 -19 0 -20 73 -127 120 -175 43 -43 125 -101 144 -101 5 0
-11 14 -37 31 -85 56 -193 188 -212 259 -3 14 8 1 24 -29 106 -187 249 -281
429 -281 140 0 263 49 356 143 33 34 64 60 69 59 4 -1 16 13 27 30 17 28 27
54 55 146 10 29 12 8 4 -30z m-53 -84 c-15 -32 -29 -55 -31 -52 -3 3 7 32 22
65 16 33 29 56 31 52 2 -5 -8 -34 -22 -65z"/>
<path d="M2385 4830 c-18 -8 -17 -9 7 -9 15 -1 30 4 33 9 7 12 -12 12 -40 0z"/>
<path d="M2225 4817 c-62 -10 -200 -43 -320 -78 -270 -79 -414 -141 -629 -269
-75 -45 -19 -30 71 19 161 88 331 153 643 250 36 11 123 31 194 46 182 36 211
60 41 32z"/>
<path d="M2488 4823 c12 -2 30 -2 40 0 9 3 -1 5 -23 4 -22 0 -30 -2 -17 -4z"/>
<path d="M2755 4810 c79 -15 135 -19 135 -11 0 12 -53 21 -119 20 -55 -1 -55
-1 -16 -9z"/>
<path d="M2931 4796 c4 -4 58 -17 120 -30 63 -13 171 -42 241 -65 139 -45 142
-46 133 -31 -3 5 -38 20 -78 31 -40 12 -92 31 -117 41 -60 26 -316 72 -299 54z"/>
<path d="M2380 4729 c-144 -14 -205 -28 -532 -130 -69 -21 -132 -39 -139 -39
-17 0 -169 -72 -293 -139 -72 -39 -206 -132 -206 -143 0 -14 16 -9 51 16 19
14 61 40 94 59 299 170 336 185 698 281 293 79 386 91 622 82 94 -4 184 -9
200 -13 21 -4 27 -2 20 5 -29 30 -295 41 -515 21z"/>
<path d="M2985 4690 c11 -5 27 -9 35 -9 9 0 8 4 -5 9 -11 5 -27 9 -35 9 -9 0
-8 -4 5 -9z"/>
<path d="M3480 4635 c0 -2 21 -13 47 -25 26 -11 63 -33 82 -48 20 -15 64 -41
98 -59 34 -18 86 -48 115 -67 28 -20 54 -33 57 -31 2 3 2 6 0 8 -13 10 -138
99 -157 112 -12 9 -66 38 -119 66 -88 44 -123 57 -123 44z"/>
<path d="M1073 4333 c-203 -151 -311 -257 -404 -395 -23 -35 -57 -81 -75 -103
-69 -86 -206 -337 -302 -555 -55 -123 -117 -377 -131 -537 -16 -172 -15 -386
2 -381 8 3 14 52 19 169 4 90 14 189 22 219 8 30 20 102 26 160 7 58 21 141
32 185 29 114 101 285 161 379 28 45 64 108 81 141 46 88 120 201 219 335 91
123 280 311 377 377 27 18 50 36 50 38 0 14 -33 1 -77 -32z"/>
<path d="M3930 4361 c0 -5 17 -21 38 -37 20 -15 74 -61 120 -102 45 -41 85
-72 88 -69 7 7 -10 23 -118 120 -107 97 -128 111 -128 88z"/>
<path d="M1133 4231 c-64 -41 -79 -56 -64 -65 5 -3 33 13 63 35 68 54 73 58
67 63 -3 3 -32 -12 -66 -33z"/>
<path d="M980 4117 c-131 -104 -257 -263 -387 -491 -83 -145 -96 -173 -87
-188 8 -13 19 5 94 147 85 162 98 182 177 261 132 133 285 314 267 314 -5 0
-34 -19 -64 -43z"/>
<path d="M4200 4134 c0 -17 37 -60 45 -53 3 4 -5 20 -19 35 -14 16 -26 24 -26
18z"/>
<path d="M4260 4064 c1 -17 50 -70 50 -53 0 8 -11 26 -25 39 -14 13 -25 19
-25 14z"/>
<path d="M4320 3981 c0 -6 5 -13 10 -16 6 -3 10 1 10 9 0 9 -4 16 -10 16 -5 0
-10 -4 -10 -9z"/>
<path d="M1805 3914 c-30 -7 -166 -42 -205 -54 -205 -62 -229 -73 -240 -103
-5 -17 -10 -38 -10 -48 0 -10 -5 -21 -12 -25 -7 -5 -9 -2 -5 9 13 35 20 90 9
83 -9 -5 -17 -46 -36 -171 -2 -16 -3 4 -1 45 1 41 6 83 10 93 4 9 3 17 -3 17
-16 0 -22 -38 -22 -141 0 -111 16 -175 68 -269 70 -126 190 -219 329 -255 66
-17 133 -20 133 -5 0 6 -19 10 -43 10 -24 0 -68 7 -98 16 -89 26 -222 104
-205 121 3 4 19 -5 34 -19 25 -24 92 -63 92 -55 0 3 -18 16 -40 31 -50 33
-112 96 -152 154 -60 86 -97 216 -80 277 7 25 10 15 14 -51 3 -64 11 -94 37
-146 34 -71 139 -193 195 -228 49 -30 137 -58 206 -66 l59 -6 65 131 c100 198
192 349 228 371 62 37 83 -7 45 -96 -14 -33 -55 -124 -91 -203 -37 -79 -65
-146 -62 -148 10 -10 95 48 147 99 33 34 65 80 88 128 35 74 36 77 36 202 0
83 -4 131 -12 139 -9 9 -36 8 -114 -1 l-103 -12 -19 26 c-12 16 -28 26 -44 26
-18 0 -41 16 -77 54 -44 46 -86 79 -98 75 -2 -1 -12 -3 -23 -5z m-444 -514
c18 -34 50 -81 72 -106 22 -25 37 -47 34 -50 -13 -13 -111 123 -137 191 -16
43 -2 27 31 -35z"/>
<path d="M4405 3860 c3 -5 8 -10 11 -10 2 0 4 5 4 10 0 6 -5 10 -11 10 -5 0
-7 -4 -4 -10z"/>
<path d="M4430 3824 c0 -15 27 -50 34 -43 4 3 -2 17 -13 30 -11 13 -20 19 -21
13z"/>
<path d="M4470 3763 c0 -6 19 -46 41 -89 61 -116 116 -256 145 -366 13 -54 29
-108 34 -120 5 -13 14 -43 20 -67 16 -62 30 -37 19 33 -19 117 -86 311 -159
462 -52 106 -100 176 -100 147z"/>
<path d="M2301 3744 c0 -11 3 -14 6 -6 3 7 2 16 -1 19 -3 4 -6 -2 -5 -13z"/>
<path d="M3335 3581 c-227 -64 -400 -264 -406 -471 -3 -112 -1 -124 22 -138
20 -13 20 -12 14 30 -4 24 -2 54 4 68 8 21 10 14 10 -38 1 -35 5 -72 11 -82 5
-10 58 -48 117 -85 144 -90 173 -112 187 -145 6 -16 35 -53 64 -84 50 -53 56
-56 102 -56 209 0 387 126 460 328 20 55 22 75 18 170 -5 97 -9 116 -42 186
-43 93 -134 189 -223 235 -32 17 -54 30 -50 31 26 1 135 -69 183 -117 57 -58
72 -81 111 -168 12 -28 22 -41 22 -30 0 11 -8 40 -19 64 -23 49 -24 55 -11 46
5 -3 17 -29 27 -58 9 -28 19 -58 22 -66 4 -10 1 -12 -8 -6 -14 8 -13 2 12
-133 9 -49 9 -76 -1 -124 -12 -60 -58 -165 -67 -155 -2 2 6 26 20 53 13 27 27
65 30 84 4 24 -1 15 -17 -26 -13 -34 -34 -79 -46 -100 -15 -24 -17 -33 -7 -25
9 8 16 9 16 3 0 -14 -90 -112 -103 -112 -6 0 9 21 33 48 42 44 42 44 -15 -8
-33 -30 -62 -57 -65 -59 -3 -2 3 -1 13 2 11 4 16 3 12 -4 -4 -6 -14 -8 -22 -5
-19 8 -39 -4 -24 -14 23 -14 -103 -59 -193 -69 -88 -10 -122 -20 -75 -22 256
-11 507 198 536 447 10 79 -3 197 -32 284 -24 75 -100 175 -178 234 -125 96
-293 129 -442 87z m70 -18 c-51 -11 -133 -38 -167 -55 -49 -24 -61 -23 -21 3
37 23 146 58 183 57 19 0 21 -1 5 -5z m116 -2 c-11 -7 -10 -10 5 -14 10 -2
-10 -5 -46 -6 -75 -1 -181 -29 -252 -66 -28 -15 -47 -22 -44 -17 17 29 143 75
257 96 95 17 97 17 80 7z m114 -11 c14 -5 25 -11 25 -14 0 -6 -92 22 -99 30
-7 8 37 -2 74 -16z m81 -35 c10 -8 15 -14 9 -14 -5 0 -19 6 -29 14 -11 8 -15
15 -10 15 6 0 19 -7 30 -15z m-600 -86 c-25 -22 -46 -46 -46 -52 0 -6 12 0 28
14 64 58 73 59 21 4 -31 -33 -64 -75 -74 -93 -9 -19 -19 -31 -22 -28 -3 3 2
17 11 32 10 14 15 28 13 31 -3 2 -21 -24 -40 -59 -33 -58 -49 -121 -60 -228
-2 -19 -4 -6 -5 30 -2 79 30 177 84 259 38 57 109 131 127 131 5 0 -11 -18
-37 -41z m694 16 c13 -14 21 -25 18 -25 -2 0 -15 11 -28 25 -13 14 -21 25 -18
25 2 0 15 -11 28 -25z m-809 -241 c-5 -16 -12 -42 -16 -58 -3 -15 -8 -26 -11
-23 -3 3 2 31 11 62 9 32 18 55 21 53 2 -3 0 -18 -5 -34z m976 -146 c-3 -7 -5
-2 -5 12 0 14 2 19 5 13 2 -7 2 -19 0 -25z"/>
<path d="M3057 3363 c-4 -3 -7 -11 -7 -17 0 -6 5 -5 12 2 6 6 9 14 7 17 -3 3
-9 2 -12 -2z"/>
<path d="M2312 3530 c0 -14 2 -19 5 -12 2 6 2 18 0 25 -3 6 -5 1 -5 -13z"/>
<path d="M2329 3505 c-4 -5 -10 -26 -14 -45 -9 -41 -44 -114 -51 -107 -3 3 3
22 14 44 11 21 22 54 26 73 4 23 -2 13 -18 -28 -13 -34 -36 -81 -50 -105 l-27
-42 25 30 c14 17 26 26 26 21 0 -15 -52 -86 -63 -86 -5 0 -3 8 4 18 8 9 -6 -1
-31 -23 -25 -22 -58 -51 -75 -63 -16 -13 -24 -20 -16 -16 9 5 12 3 7 -5 -4 -7
-17 -9 -29 -6 -17 5 -19 4 -7 -4 12 -8 7 -13 -24 -26 -21 -9 -36 -18 -33 -21
8 -9 129 56 174 93 85 70 179 228 171 287 -2 11 -6 17 -9 11z m-165 -276 c-16
-17 -38 -35 -49 -41 -11 -5 0 8 25 31 54 48 65 53 24 10z"/>
<path d="M438 3300 c-59 -92 -161 -546 -112 -497 4 3 17 61 30 129 27 143 35
174 75 286 32 86 35 126 7 82z"/>
<path d="M1708 3123 c6 -2 18 -2 25 0 6 3 1 5 -13 5 -14 0 -19 -2 -12 -5z"/>
<path d="M1778 3113 c12 -2 30 -2 40 0 9 3 -1 5 -23 4 -22 0 -30 -2 -17 -4z"/>
<path d="M4730 3046 c0 -9 5 -16 10 -16 6 0 10 4 10 9 0 6 -4 13 -10 16 -5 3
-10 -1 -10 -9z"/>
<path d="M3952 2995 c0 -16 2 -22 5 -12 2 9 2 23 0 30 -3 6 -5 -1 -5 -18z"/>
<path d="M306 2763 c-3 -3 -6 -17 -6 -31 0 -21 2 -22 15 -12 8 7 15 18 15 26
0 15 -15 26 -24 17z"/>
<path d="M3026 2745 c16 -25 34 -33 34 -15 0 5 8 7 18 4 14 -5 14 -4 2 4 -8 6
-17 9 -21 6 -4 -2 -12 3 -19 11 -21 25 -32 17 -14 -10z"/>
<path d="M1145 2617 c-126 -32 -276 -144 -340 -253 -54 -92 -72 -163 -70 -271
3 -116 21 -183 74 -273 72 -121 203 -220 331 -249 57 -13 163 -14 229 -1 91
17 209 80 276 146 58 57 105 124 119 172 14 42 -9 22 -39 -36 -31 -60 -98
-139 -149 -175 -16 -11 -26 -16 -22 -9 9 15 1 15 -25 1 -11 -5 -17 -14 -14
-19 9 -15 -65 -47 -141 -60 -197 -35 -376 26 -499 170 -44 52 -111 167 -102
176 2 3 19 -26 37 -62 36 -73 141 -189 198 -218 53 -27 48 -12 -8 24 -58 37
-140 132 -176 202 -29 56 -54 150 -53 193 0 16 7 -2 14 -40 22 -121 96 -242
199 -326 218 -176 580 -97 712 155 25 48 27 59 16 76 -16 27 -15 59 3 66 22 9
18 23 -9 30 -34 8 -100 82 -135 151 -34 67 -49 189 -33 260 11 49 3 60 -68 92
-25 11 -39 21 -31 21 7 0 35 -12 62 -27 52 -28 81 -26 32 2 -26 15 -17 14 25
-2 15 -6 15 -5 3 10 -7 9 -43 31 -80 49 -60 29 -76 32 -176 35 -66 1 -130 -3
-160 -10z m75 -17 c-8 -5 -24 -9 -35 -9 -16 1 -16 2 5 9 35 11 48 11 30 0z
m-63 -16 c-3 -3 -12 -4 -19 -1 -8 3 -5 6 6 6 11 1 17 -2 13 -5z m53 -14 c-79
-20 -96 -23 -89 -15 9 8 113 34 139 34 14 0 -9 -9 -50 -19z m-100 3 c-8 -3
-37 -16 -64 -30 -27 -13 -50 -22 -52 -20 -6 6 99 56 116 56 13 -1 13 -1 0 -6z
m-40 -46 c-25 -12 -58 -31 -75 -42 -16 -10 -25 -13 -18 -5 18 20 106 70 123
70 8 -1 -5 -11 -30 -23z m-100 -21 c0 -2 -8 -10 -17 -17 -16 -13 -17 -12 -4 4
13 16 21 21 21 13z m-69 -66 c-36 -36 -103 -148 -120 -200 -6 -20 -15 -63 -21
-95 l-9 -60 3 69 c3 56 11 84 44 150 38 77 118 183 129 172 3 -3 -9 -19 -26
-36z m12 -25 c-15 -19 -32 -35 -37 -35 -6 0 5 16 24 35 43 45 49 45 13 0z
m-58 -75 c-9 -16 -18 -30 -21 -30 -2 0 2 14 11 30 9 17 18 30 21 30 2 0 -2
-13 -11 -30z m-51 -117 c-8 -27 -16 -52 -19 -58 -8 -16 7 58 16 83 15 40 17
23 3 -25z"/>
<path d="M3585 2580 c-13 -5 -14 -9 -5 -9 8 0 24 4 35 9 13 5 14 9 5 9 -8 0
-24 -4 -35 -9z"/>
<path d="M3508 2563 c6 -2 18 -2 25 0 6 3 1 5 -13 5 -14 0 -19 -2 -12 -5z"/>
<path d="M155 2330 c3 -5 8 -10 11 -10 2 0 4 5 4 10 0 6 -5 10 -11 10 -5 0 -7
-4 -4 -10z"/>
<path d="M2790 2255 c0 -62 1 -65 24 -65 25 0 25 1 10 35 -7 19 -14 48 -14 65
0 16 -4 30 -10 30 -6 0 -10 -28 -10 -65z"/>
<path d="M170 2173 c0 -46 11 -93 23 -93 6 0 7 19 4 52 -7 59 -27 90 -27 41z"/>
<path d="M190 2040 c0 -5 5 -10 10 -10 6 0 10 5 10 10 0 6 -4 10 -10 10 -5 0
-10 -4 -10 -10z"/>
<path d="M1701 1855 c-22 -45 -55 -90 -90 -124 -31 -30 -46 -49 -34 -43 50 27
170 193 161 225 -2 6 -18 -19 -37 -58z"/>
<path d="M1440 1630 c-25 -11 -38 -19 -30 -19 8 0 35 9 60 19 25 10 38 19 30
18 -8 0 -35 -8 -60 -18z"/>
<path d="M1148 1603 c6 -2 18 -2 25 0 6 3 1 5 -13 5 -14 0 -19 -2 -12 -5z"/>
<path d="M1358 1603 c6 -2 18 -2 25 0 6 3 1 5 -13 5 -14 0 -19 -2 -12 -5z"/>
<path d="M1227 1593 c18 -2 50 -2 70 0 21 2 7 4 -32 4 -38 0 -55 -2 -38 -4z"/>
<path d="M4299 1183 l-34 -38 38 34 c20 19 37 36 37 38 0 8 -8 0 -41 -34z"/>
<path d="M4075 1060 c-13 -5 -14 -9 -5 -9 8 0 24 4 35 9 13 5 14 9 5 9 -8 0
-24 -4 -35 -9z"/>
<path d="M3858 1043 c6 -2 18 -2 25 0 6 3 1 5 -13 5 -14 0 -19 -2 -12 -5z"/>
<path d="M3998 1043 c7 -3 16 -2 19 1 4 3 -2 6 -13 5 -11 0 -14 -3 -6 -6z"/>
</g>
</svg>
